<?xml version="1.0" encoding="UTF-8" standalone="no"?>
<svg
   xmlns:dc="http://purl.org/dc/elements/1.1/"
   xmlns:cc="http://creativecommons.org/ns#"
   xmlns:rdf="http://www.w3.org/1999/02/22-rdf-syntax-ns#"
   xmlns:svg="http://www.w3.org/2000/svg"
   xmlns="http://www.w3.org/2000/svg"
   xmlns:sodipodi="http://sodipodi.sourceforge.net/DTD/sodipodi-0.dtd"
   xmlns:inkscape="http://www.inkscape.org/namespaces/inkscape"
   width="21.900696mm"
   height="14.047013mm"
   viewBox="0 0 21.900696 14.047013"
   version="1.1"
   id="svg7883"
   inkscape:version="1.0 (4035a4fb49, 2020-05-01)"
   sodipodi:docname="6_aar.svg">
  <defs
     id="defs7877" />
  <sodipodi:namedview
     id="base"
     pagecolor="#ffffff"
     bordercolor="#666666"
     borderopacity="1.0"
     inkscape:pageopacity="0.0"
     inkscape:pageshadow="2"
     inkscape:zoom="11.2"
     inkscape:cx="19.685767"
     inkscape:cy="24.246483"
     inkscape:document-units="mm"
     inkscape:current-layer="layer1"
     inkscape:document-rotation="0"
     showgrid="false"
     fit-margin-top="0"
     fit-margin-left="0"
     fit-margin-right="0"
     fit-margin-bottom="0"
     inkscape:window-width="1920"
     inkscape:window-height="1017"
     inkscape:window-x="1912"
     inkscape:window-y="-8"
     inkscape:window-maximized="1"
     inkscape:snap-global="true"
     inkscape:snap-page="true" />
  <metadata
     id="metadata7880">
    <rdf:RDF>
      <cc:Work
         rdf:about="">
        <dc:format>image/svg+xml</dc:format>
        <dc:type
           rdf:resource="http://purl.org/dc/dcmitype/StillImage" />
        <dc:title></dc:title>
      </cc:Work>
    </rdf:RDF>
  </metadata>
  <g
     inkscape:label="Layer 1"
     inkscape:groupmode="layer"
     id="layer1"
     transform="translate(-0.19994871,-0.15804234)">
    <path
       sodipodi:nodetypes="ccccccc"
       d="M 19.86715,2.4170921 H 13.1183 V 11.023262 M 13.1183,11.023262 V 2.4170921 H 6.4190007 V 11.023262"
       style="color:#000000;font-variation-settings:normal;overflow:visible;vector-effect:none;fill:none;fill-opacity:0;fill-rule:evenodd;stroke:#000000;stroke-width:0.663107;stroke-linecap:butt;stroke-linejoin:miter;stroke-miterlimit:4;stroke-dasharray:none;stroke-dashoffset:0;stroke-opacity:1;stop-color:#000000"
       id="path11935" />
    <ellipse
       ry="1.2453476"
       rx="1.96495"
       cy="10.829658"
       cx="11.188212"
       id="ellipse11937"
       style="color:#000000;font-variation-settings:normal;overflow:visible;vector-effect:none;fill:#000000;fill-opacity:1;fill-rule:evenodd;stroke:#000000;stroke-width:0.663109;stroke-linecap:butt;stroke-linejoin:miter;stroke-miterlimit:4;stroke-dasharray:none;stroke-dashoffset:0;stroke-opacity:1;stop-color:#000000" />
    <ellipse
       ry="1.2453476"
       rx="1.96495"
       cy="10.829658"
       cx="4.4524903"
       id="ellipse11941"
       style="color:#000000;font-variation-settings:normal;overflow:visible;vector-effect:none;fill:#000000;fill-opacity:1;fill-rule:evenodd;stroke:#000000;stroke-width:0.663109;stroke-linecap:butt;stroke-linejoin:miter;stroke-miterlimit:4;stroke-dasharray:none;stroke-dashoffset:0;stroke-opacity:1;stop-color:#000000" />
    <g
       style="stroke-width:1.001"
       id="g9417-0-0"
       transform="matrix(0.99899999,0,0,0.99899999,16.237121,-618.09815)">
      <ellipse
         style="color:#000000;overflow:visible;fill:#000000;fill-opacity:1;fill-rule:evenodd;stroke:#000000;stroke-width:0.663772;stroke-miterlimit:4;stroke-dasharray:none;stop-color:#000000"
         id="ellipse9261-00-7-7"
         cx="1.3866385"
         cy="623.54803"
         rx="0.78865874"
         ry="0.72846556" />
      <path
         sodipodi:nodetypes="ccc"
         id="path9263-3-3-0"
         d="M 2.391234,629.37081 3.411812,623.26326 C 2.624119,624.2051 1.957156,624.4114 1.349103,624.25878"
         style="color:#000000;font-variation-settings:normal;overflow:visible;vector-effect:none;fill:none;fill-opacity:1;fill-rule:evenodd;stroke:#000000;stroke-width:0.414414;stroke-linecap:butt;stroke-linejoin:miter;stroke-miterlimit:4;stroke-dasharray:none;stroke-dashoffset:0;stroke-opacity:1;marker:none;stop-color:#000000" />
    </g>
    <g
       style="font-size:4.67255px;line-height:100%;font-family:'Neon Sans';-inkscape-font-specification:'Neon Sans';text-align:center;text-decoration:none;text-decoration-line:none;text-decoration-color:#000000;letter-spacing:0px;word-spacing:0px;text-anchor:middle;fill:#000000;stroke:#000000;stroke-width:0.184021px;stroke-linecap:butt;stroke-linejoin:miter;stroke-opacity:1;stop-color:#000000"
       id="text836"
       aria-label="3">
      <path
         id="path846"
         style="font-style:normal;font-variant:normal;font-weight:normal;font-stretch:normal;font-family:Arial;-inkscape-font-specification:Arial;stroke-width:0.184021px"
         d="M 1.0288262,3.3721397 1.4394995,3.3173832 Q 1.5102266,3.6664556 1.679059,3.8215988 1.8501729,3.9744606 2.0942954,3.9744606 2.3840482,3.9744606 2.5825404,3.7736869 2.783314,3.5729133 2.783314,3.2763159 2.783314,2.9934076 2.598511,2.8108861 2.413708,2.6260831 2.1285182,2.6260831 2.0121607,2.6260831 1.8387653,2.6717134 L 1.8843957,2.3112335 Q 1.925463,2.3157965 1.9505597,2.3157965 2.2129344,2.3157965 2.4228341,2.1789054 2.6327338,2.0420143 2.6327338,1.7568245 2.6327338,1.5309541 2.479872,1.3826554 2.3270103,1.2343567 2.0851693,1.2343567 1.8456098,1.2343567 1.6859035,1.3849369 1.5261972,1.5355171 1.4805669,1.8366776 L 1.0698935,1.763669 Q 1.1451836,1.3507141 1.4121213,1.1248438 1.679059,0.89669192 2.0760432,0.89669192 2.3498255,0.89669192 2.5802589,1.0153309 2.8106922,1.1316883 2.9316127,1.3347435 3.0548147,1.5377987 3.0548147,1.7659505 3.0548147,1.9826948 2.9384573,2.1606533 2.8220998,2.3386117 2.593948,2.4435616 2.8905454,2.5120071 3.0548147,2.7287514 3.2190841,2.9432142 3.2190841,3.2671898 3.2190841,3.7052414 2.8996715,4.0109649 2.5802589,4.3144069 2.0920139,4.3144069 1.6516808,4.3144069 1.3596464,4.0520322 1.0698935,3.7896576 1.0288262,3.3721397 Z" />
    </g>
  </g>
</svg>
