<?xml version="1.0" encoding="UTF-8" standalone="no"?>
<svg
   xmlns:dc="http://purl.org/dc/elements/1.1/"
   xmlns:cc="http://creativecommons.org/ns#"
   xmlns:rdf="http://www.w3.org/1999/02/22-rdf-syntax-ns#"
   xmlns:svg="http://www.w3.org/2000/svg"
   xmlns="http://www.w3.org/2000/svg"
   xmlns:sodipodi="http://sodipodi.sourceforge.net/DTD/sodipodi-0.dtd"
   xmlns:inkscape="http://www.inkscape.org/namespaces/inkscape"
   sodipodi:docname="6_rar.svg"
   inkscape:version="1.0 (4035a4fb49, 2020-05-01)"
   id="svg7883"
   version="1.1"
   viewBox="0 0 21.900696 14.047013"
   height="14.047013mm"
   width="21.900696mm">
  <defs
     id="defs7877" />
  <sodipodi:namedview
     inkscape:snap-page="true"
     inkscape:snap-global="true"
     inkscape:window-maximized="1"
     inkscape:window-y="-8"
     inkscape:window-x="-8"
     inkscape:window-height="1017"
     inkscape:window-width="1920"
     fit-margin-bottom="0"
     fit-margin-right="0"
     fit-margin-left="0"
     fit-margin-top="0"
     showgrid="false"
     inkscape:document-rotation="0"
     inkscape:current-layer="layer1"
     inkscape:document-units="mm"
     inkscape:cy="20.205107"
     inkscape:cx="56.741611"
     inkscape:zoom="5.6"
     inkscape:pageshadow="2"
     inkscape:pageopacity="0.0"
     borderopacity="1.0"
     bordercolor="#666666"
     pagecolor="#ffffff"
     id="base" />
  <metadata
     id="metadata7880">
    <rdf:RDF>
      <cc:Work
         rdf:about="">
        <dc:format>image/svg+xml</dc:format>
        <dc:type
           rdf:resource="http://purl.org/dc/dcmitype/StillImage" />
        <dc:title />
      </cc:Work>
    </rdf:RDF>
  </metadata>
  <g
     transform="translate(-0.19994871,-0.15804234)"
     id="layer1"
     inkscape:groupmode="layer"
     inkscape:label="Layer 1">
    <g
       style="font-size:4.67255px;line-height:100%;font-family:'Neon Sans';-inkscape-font-specification:'Neon Sans';text-align:center;text-decoration:none;text-decoration-line:none;text-decoration-color:#000000;letter-spacing:0px;word-spacing:0px;text-anchor:middle;fill:#000000;stroke:#000000;stroke-width:0.184021px;stroke-linecap:butt;stroke-linejoin:miter;stroke-opacity:1;stop-color:#000000"
       id="text836"
       aria-label="3">
      <g
         style="opacity:1"
         id="g841">
        <path
           id="path843"
           d="M 1.0288262,3.3721397 1.4394995,3.3173832 C 1.4866509,3.5500981 1.5665041,3.71817 1.679059,3.8215988 1.7931349,3.9235067 1.9315471,3.9744606 2.0942954,3.9744606 2.2874639,3.9744606 2.4502123,3.907536 2.5825404,3.7736869 2.7163895,3.6398378 2.783314,3.4740475 2.783314,3.2763159 2.783314,3.0877104 2.721713,2.9325671 2.598511,2.8108861 2.475309,2.6876841 2.3186447,2.6260831 2.1285182,2.6260831 2.0509465,2.6260831 1.9543622,2.6412932 1.8387653,2.6717134 L 1.8843957,2.3112335 C 1.9117739,2.3142755 1.9338286,2.3157965 1.9505597,2.3157965 2.1254762,2.3157965 2.282901,2.2701661 2.4228341,2.1789054 2.5627672,2.0876447 2.6327338,1.946951 2.6327338,1.7568245 2.6327338,1.6062442 2.5817799,1.4815212 2.479872,1.3826554 2.3779642,1.2837896 2.2463966,1.2343567 2.0851693,1.2343567 1.925463,1.2343567 1.7923744,1.2845501 1.6859035,1.3849369 1.5794326,1.4853237 1.5109871,1.6359039 1.4805669,1.8366776 L 1.0698935,1.763669 C 1.1200869,1.4883657 1.2341628,1.275424 1.4121213,1.1248438 1.5900798,0.97274255 1.8113871,0.89669192 2.0760432,0.89669192 2.2585647,0.89669192 2.4266366,0.93623825 2.5802589,1.0153309 2.7338811,1.0929025 2.850999,1.1993734 2.9316127,1.3347435 3.0137474,1.4701136 3.0548147,1.6138493 3.0548147,1.7659505 3.0548147,1.9104467 3.0160289,2.0420143 2.9384573,2.1606533 2.8608856,2.2792922 2.7460492,2.373595 2.593948,2.4435616 2.7916796,2.4891919 2.9453018,2.5842552 3.0548147,2.7287514 3.1643276,2.8717266 3.2190841,3.0512061 3.2190841,3.2671898 3.2190841,3.5592242 3.1126132,3.8071492 2.8996715,4.0109649 2.6867298,4.2132596 2.4175106,4.3144069 2.0920139,4.3144069 1.7984585,4.3144069 1.554336,4.2269487 1.3596464,4.0520322 1.1664778,3.8771158 1.0562044,3.650485 1.0288262,3.3721397 Z"
           style="color:#000000;font-style:normal;font-variant:normal;font-weight:normal;font-stretch:normal;font-size:medium;line-height:100%;font-family:Arial;-inkscape-font-specification:Arial;font-variant-ligatures:normal;font-variant-position:normal;font-variant-caps:normal;font-variant-numeric:normal;font-variant-alternates:normal;font-variant-east-asian:normal;font-feature-settings:normal;font-variation-settings:normal;text-indent:0;text-align:start;text-decoration:none;text-decoration-line:none;text-decoration-style:solid;text-decoration-color:#000000;letter-spacing:0px;word-spacing:0px;text-transform:none;writing-mode:lr-tb;direction:ltr;text-orientation:mixed;dominant-baseline:auto;baseline-shift:baseline;text-anchor:start;white-space:normal;shape-padding:0;shape-margin:0;inline-size:0;clip-rule:nonzero;display:inline;overflow:visible;visibility:visible;isolation:auto;mix-blend-mode:normal;color-interpolation:sRGB;color-interpolation-filters:linearRGB;solid-color:#000000;solid-opacity:1;vector-effect:none;fill:#000000;fill-opacity:1;fill-rule:nonzero;stroke:none;stroke-width:0.184021px;stroke-linecap:butt;stroke-linejoin:miter;stroke-miterlimit:4;stroke-dasharray:none;stroke-dashoffset:0;stroke-opacity:1.0;color-rendering:auto;image-rendering:auto;shape-rendering:auto;text-rendering:auto;enable-background:accumulate;stop-color:#000000;stop-opacity:1;" />
        <path
           id="path845"
           d="M 2.0761719 0.8046875 C 1.7945691 0.8046875 1.5483754 0.88875122 1.3535156 1.0546875 C 1.1577057 1.2203728 1.0316197 1.4567792 0.97851562 1.7480469 L 0.96289062 1.8378906 L 1.5566406 1.9433594 L 1.5722656 1.8496094 C 1.6006443 1.6623101 1.6626235 1.5335554 1.75 1.4511719 C 1.8397633 1.3665379 1.9455095 1.3261719 2.0859375 1.3261719 C 2.2283577 1.3261719 2.3315132 1.3672388 2.4160156 1.4492188 C 2.5011673 1.5318286 2.5410156 1.6260357 2.5410156 1.7558594 C 2.5410156 1.9234127 2.4884914 2.0262726 2.3730469 2.1015625 C 2.2478069 2.1832407 2.1100865 2.2246094 1.9511719 2.2246094 C 1.9400171 2.2246094 1.9198649 2.223518 1.8945312 2.2207031 L 1.8046875 2.2089844 L 1.7304688 2.7949219 L 1.8613281 2.7597656 C 1.9720265 2.7306345 2.0633621 2.71875 2.1289062 2.71875 C 2.2991585 2.71875 2.426735 2.7685319 2.5332031 2.875 L 2.5332031 2.8769531 C 2.6394949 2.9819326 2.6914062 3.1068196 2.6914062 3.2753906 C 2.6914063 3.4523609 2.6354083 3.5911542 2.5175781 3.7089844 C 2.4009873 3.8269153 2.2656668 3.8828125 2.09375 3.8828125 C 1.9509063 3.8828125 1.8397164 3.8404642 1.7421875 3.7539062 C 1.6502348 3.6694092 1.5741455 3.520178 1.5292969 3.2988281 L 1.5117188 3.2148438 L 0.92773438 3.2929688 L 0.9375 3.3808594 C 0.96675797 3.6783156 1.0892627 3.9313298 1.2988281 4.1210938 C 1.5106197 4.3113753 1.7799665 4.40625 2.0917969 4.40625 C 2.4363549 4.40625 2.7329767 4.2965433 2.9628906 4.078125 C 3.1916906 3.8591308 3.3105469 3.5819762 3.3105469 3.2675781 C 3.3105469 3.0360433 3.2500663 2.8326061 3.1269531 2.671875 C 3.0354705 2.5519891 2.8902026 2.4920586 2.7460938 2.4335938 C 2.8471952 2.3678614 2.9536006 2.3057983 3.015625 2.2109375 C 3.1025598 2.0779783 3.1464844 1.9265862 3.1464844 1.765625 C 3.1464844 1.5969619 3.0998279 1.4355453 3.0097656 1.2871094 C 2.9202057 1.1367163 2.7894606 1.017913 2.6230469 0.93359375 L 2.6210938 0.93359375 C 2.4547368 0.84829271 2.2713213 0.8046875 2.0761719 0.8046875 z M 2.0761719 0.98828125 C 2.245403 0.98828125 2.3986254 1.025352 2.5390625 1.0976562 C 2.6792417 1.1684398 2.7820952 1.2609269 2.8535156 1.3808594 L 2.8535156 1.3828125 C 2.9277227 1.5051168 2.9628906 1.6300857 2.9628906 1.765625 C 2.9628906 1.8936562 2.9295365 2.0050562 2.8613281 2.109375 C 2.7942966 2.2118937 2.694246 2.2951781 2.5546875 2.359375 L 2.3105469 2.4726562 L 2.5742188 2.5332031 C 2.7548422 2.5748854 2.8861945 2.6581895 2.9824219 2.7851562 C 3.0783345 2.9103756 3.1269531 3.0671455 3.1269531 3.2675781 C 3.1269531 3.5365927 3.0320408 3.7550338 2.8359375 3.9433594 C 2.639968 4.1295304 2.3982322 4.2226563 2.0917969 4.2226562 C 1.8165164 4.2226562 1.5994627 4.1439264 1.421875 3.984375 C 1.2690447 3.8459854 1.2013828 3.658106 1.1621094 3.4472656 L 1.3886719 3.4160156 C 1.4399682 3.6104405 1.5033497 3.7840642 1.6171875 3.8886719 L 1.6171875 3.890625 C 1.747476 4.0070161 1.911797 4.0664062 2.09375 4.0664062 C 2.3081703 4.0664063 2.500372 3.987658 2.6484375 3.8378906 C 2.7983054 3.6880227 2.875 3.4938836 2.875 3.2753906 C 2.875 3.0667505 2.8041747 2.8844762 2.6640625 2.7460938 C 2.5241266 2.6061579 2.3389071 2.5332031 2.1289062 2.5332031 C 2.0765596 2.5332031 2.0076448 2.5513658 1.9453125 2.5625 L 1.9667969 2.4042969 C 2.1512518 2.4013664 2.3226104 2.3537154 2.4726562 2.2558594 C 2.637078 2.1486278 2.7246094 1.9685592 2.7246094 1.7558594 C 2.7246094 1.5845225 2.6616328 1.431528 2.5429688 1.3164062 C 2.4236556 1.2006546 2.265972 1.1425781 2.0859375 1.1425781 C 1.9069528 1.1425781 1.7462253 1.2022198 1.6230469 1.3183594 C 1.5193956 1.4160877 1.4689807 1.5699135 1.4296875 1.734375 L 1.2050781 1.6953125 C 1.2594716 1.4900908 1.3336512 1.3112795 1.4707031 1.1953125 L 1.4726562 1.1953125 C 1.6334897 1.057848 1.8291423 0.98828125 2.0761719 0.98828125 z "
           style="color:#000000;font-style:normal;font-variant:normal;font-weight:normal;font-stretch:normal;font-size:medium;line-height:100%;font-family:Arial;-inkscape-font-specification:Arial;font-variant-ligatures:normal;font-variant-position:normal;font-variant-caps:normal;font-variant-numeric:normal;font-variant-alternates:normal;font-variant-east-asian:normal;font-feature-settings:normal;font-variation-settings:normal;text-indent:0;text-align:start;text-decoration:none;text-decoration-line:none;text-decoration-style:solid;text-decoration-color:#000000;letter-spacing:0px;word-spacing:0px;text-transform:none;writing-mode:lr-tb;direction:ltr;text-orientation:mixed;dominant-baseline:auto;baseline-shift:baseline;text-anchor:start;white-space:normal;shape-padding:0;shape-margin:0;inline-size:0;clip-rule:nonzero;display:inline;overflow:visible;visibility:visible;isolation:auto;mix-blend-mode:normal;color-interpolation:sRGB;color-interpolation-filters:linearRGB;solid-color:#000000;solid-opacity:1;vector-effect:none;fill:#000000;fill-opacity:1;fill-rule:nonzero;stroke:none;stroke-width:0.184021px;stroke-linecap:butt;stroke-linejoin:miter;stroke-miterlimit:4;stroke-dasharray:none;stroke-dashoffset:0;stroke-opacity:1.0;color-rendering:auto;image-rendering:auto;shape-rendering:auto;text-rendering:auto;enable-background:accumulate;stop-color:#000000;stop-opacity:1;" />
      </g>
    </g>
    <g
       transform="matrix(0.99899999,0,0,0.99899999,4.3886211,-618.09815)"
       id="g9417-0-0"
       style="stroke-width:1.001">
      <ellipse
         ry="0.72846556"
         rx="0.78865874"
         cy="623.54803"
         cx="1.3866385"
         id="ellipse9261-00-7-7"
         style="color:#000000;overflow:visible;fill:#000000;fill-opacity:1;fill-rule:evenodd;stroke:#000000;stroke-width:0.663772;stroke-miterlimit:4;stroke-dasharray:none;stop-color:#000000" />
      <path
         style="color:#000000;font-variation-settings:normal;overflow:visible;vector-effect:none;fill:none;fill-opacity:1;fill-rule:evenodd;stroke:#000000;stroke-width:0.414414;stroke-linecap:butt;stroke-linejoin:miter;stroke-miterlimit:4;stroke-dasharray:none;stroke-dashoffset:0;stroke-opacity:1;marker:none;stop-color:#000000"
         d="M 2.391234,629.37081 3.411812,623.26326 C 2.624119,624.2051 1.957156,624.4114 1.349103,624.25878"
         id="path9263-3-3-0"
         sodipodi:nodetypes="ccc" />
    </g>
    <g
       style="stroke-width:1.001"
       id="g844"
       transform="matrix(0.99899999,0,0,0.99899999,16.237121,-618.09815)">
      <ellipse
         style="color:#000000;overflow:visible;fill:#000000;fill-opacity:1;fill-rule:evenodd;stroke:#000000;stroke-width:0.663772;stroke-miterlimit:4;stroke-dasharray:none;stop-color:#000000"
         id="ellipse840"
         cx="1.3866385"
         cy="623.54803"
         rx="0.78865874"
         ry="0.72846556" />
      <path
         sodipodi:nodetypes="ccc"
         id="path842"
         d="M 2.391234,629.37081 3.411812,623.26326 C 2.624119,624.2051 1.957156,624.4114 1.349103,624.25878"
         style="color:#000000;font-variation-settings:normal;overflow:visible;vector-effect:none;fill:none;fill-opacity:1;fill-rule:evenodd;stroke:#000000;stroke-width:0.414414;stroke-linecap:butt;stroke-linejoin:miter;stroke-miterlimit:4;stroke-dasharray:none;stroke-dashoffset:0;stroke-opacity:1;marker:none;stop-color:#000000" />
    </g>
    <g
       id="g857"
       transform="translate(2.266979)">
      <ellipse
         ry="1.2453476"
         rx="1.9649498"
         cy="10.829527"
         cx="8.8846531"
         id="ellipse915"
         style="color:#000000;overflow:visible;fill:#000000;fill-opacity:1;fill-rule:evenodd;stroke:#000000;stroke-width:0.663109;stroke-miterlimit:4;stroke-dasharray:none;stop-color:#000000" />
      <path
         id="path919"
         style="color:#000000;font-variation-settings:normal;overflow:visible;vector-effect:none;fill:none;fill-opacity:0;fill-rule:evenodd;stroke:#000000;stroke-width:0.663108;stroke-linecap:butt;stroke-linejoin:miter;stroke-miterlimit:4;stroke-dasharray:none;stroke-dashoffset:0;stroke-opacity:1;stop-color:#000000"
         d="M 10.851321,11.023263 V 2.4170974 L 12.501079,5.0464854"
         sodipodi:nodetypes="ccc" />
    </g>
  </g>
</svg>
